<?xml version="1.0" encoding="UTF-8" standalone="no"?>
<svg
   version="1.1"
   width="3.46035in"
   height="2.9596252in"
   viewBox="0 0 249.1452 213.09302"
   id="svg4"
   sodipodi:docname="Untitled-1.cdr.svg"
   inkscape:version="1.2.2 (b0a8486541, 2022-12-01)"
   xmlns:inkscape="http://www.inkscape.org/namespaces/inkscape"
   xmlns:sodipodi="http://sodipodi.sourceforge.net/DTD/sodipodi-0.dtd"
   xmlns="http://www.w3.org/2000/svg"
   xmlns:svg="http://www.w3.org/2000/svg">
  <sodipodi:namedview
     id="namedview5"
     pagecolor="#ffffff"
     bordercolor="#000000"
     borderopacity="0.25"
     inkscape:showpageshadow="2"
     inkscape:pageopacity="0.0"
     inkscape:pagecheckerboard="0"
     inkscape:deskcolor="#d1d1d1"
     inkscape:document-units="in"
     showgrid="false"
     inkscape:zoom="3.0655627"
     inkscape:cx="166.03803"
     inkscape:cy="142.38822"
     inkscape:window-width="1920"
     inkscape:window-height="1056"
     inkscape:window-x="0"
     inkscape:window-y="0"
     inkscape:window-maximized="1"
     inkscape:current-layer="svg4" />
  <defs
     id="defs8" />
  <path
     d="m 139.322,136.88656 c 0,0 48.1141,-3.1986 69.5715,-57.952099 -45.2361,-7.6887 -69.3875,13.5428 -78.3022,21.456599 2.8074,3.1314 6.9828,8.4892 8.6476,9.9689 5.2232,-5.3765 24.9307,-20.053999 48.0649,-20.161699 -12.8665,21.164599 -41.1412,32.738399 -50.4922,32.823199 -3.8489,-9.0374 -20.116,-52.466999 -93.365796,-45.295099 1.565,5.6446 3.3202,9.3971 5.8362,13.7914 l -2.5115,0.9737 c 6.0132,12.512999 31.4187,46.113499 77.311896,45.928099 6.9814,83.4865 62.498,74.3816 110.5526,74.3816 h 14.5102 l -58.1133,-97.9262 c -3.2998,3.1802 -6.3474,5.7274 -9.6792,8.1408 l 45.2129,76.1876 c -56.2811,2.5025 -81.5015,-6.3935 -87.2436,-62.3168 z m -19.9865,-12.8245 c -4.3563,-10.5455 -23.159896,-31.663299 -56.536996,-33.644999 5.551,9.0425 26.0691,33.060199 56.536996,33.644999 z m -105.062496,88.7391 c 31.523,-54.5992 55.5415,-64.5046 81.5032,-70.5665 -6.4554,-2.8304 -11.96,-5.4666 -17.9399,-9.0008 -7.5093,1.3195 -17.7239,7.0911 -24.1637,11.3252 l 12.9555,-22.4396 c -3.1298,-2.3553 -6.7241,-5.3263 -9.5519,-8.1779 L 4.0527343e-6,212.80116 Z M 167.478,75.184561 122.8604,6.0742188e-5 80.212504,73.868961 c 4.5922,0.8025 8.6205,1.7997 12.5056,3.0612 l 30.221596,-52.3455 32.4672,54.7101 c 3.687,-1.5871 7.6099,-2.9772 12.0711,-4.1102 z"
     style="fill:#00ff92;fill-rule:evenodd;fill-opacity:1"
     id="path2" />
</svg>
